<?xml version="1.0" encoding="utf-8"?>
<!-- Generator: Adobe Illustrator 19.0.0, SVG Export Plug-In . SVG Version: 6.00 Build 0)  -->
<svg version="1.1" id="Layer_1" xmlns="http://www.w3.org/2000/svg" xmlns:xlink="http://www.w3.org/1999/xlink" x="0px" y="0px"
	 viewBox="0 0 612 792" style="enable-background:new 0 0 612 792;" xml:space="preserve">
<style type="text/css">
	.st0{fill:#20A391;stroke:#20A391;stroke-width:46;stroke-miterlimit:10;}
</style>
<path class="st0" d="M309.9,233.5c0,0,3,6.9,9.9,0c6.9-6.9,30.1-60.1,117.8-59.6c87.7,0.5,168,100.5,122.2,217.3
	c0,0-21.7,62.6-82.3,109.9c0,0-30.1,25.1-50.8,39.9c0,0-73.4,51.7-74.9,53.7c-1.5,2-23.7,19.2-26.6,21.2c-3,2-6.9,4.9-15.3,0
	s-71.4-52.2-71.4-52.2s-68-43.4-86.7-61.1c-18.7-17.7-64.1-54.7-89.7-124.2S80.8,221.7,117.3,201s74.4-32.5,128.6-16.8
	C253.3,186.7,272.5,185.2,309.9,233.5z"/>
</svg>
